<?xml version="1.0" encoding="UTF-8"?>
<svg id="Layer_2" data-name="Layer 2" xmlns="http://www.w3.org/2000/svg" xmlns:xlink="http://www.w3.org/1999/xlink" viewBox="0 0 437.22 146.99">
  <defs>
    <style>
      .cls-1 {
        fill: #f68824;
      }

      .cls-1, .cls-2, .cls-3, .cls-4, .cls-5, .cls-6, .cls-7 {
        stroke-width: 0px;
      }

      .cls-2 {
        fill: #fff;
      }

      .cls-3 {
        fill: url(#radial-gradient-2);
      }

      .cls-4 {
        fill: #098cd2;
      }

      .cls-5 {
        fill: url(#radial-gradient);
      }

      .cls-6 {
        fill: url(#radial-gradient-3);
      }

      .cls-7 {
        fill: url(#radial-gradient-4);
      }
    </style>
    <radialGradient id="radial-gradient" cx="-13411.1" cy="-1337.12" fx="-13411.1" fy="-1337.12" r="357.43" gradientTransform="translate(2787.33 -196.13) scale(.2 -.2)" gradientUnits="userSpaceOnUse">
      <stop offset="0" stop-color="#fff42a"/>
      <stop offset=".18" stop-color="#ffe728"/>
      <stop offset=".5" stop-color="#ffc622"/>
      <stop offset=".94" stop-color="#ff9019"/>
      <stop offset="1" stop-color="#ff8717"/>
    </radialGradient>
    <radialGradient id="radial-gradient-2" cx="-13440.21" cy="-1378.23" fx="-13440.21" fy="-1378.23" r="196.15" xlink:href="#radial-gradient"/>
    <radialGradient id="radial-gradient-3" cx="-13404.04" cy="-1615.67" fx="-13404.04" fy="-1615.67" r="373.53" gradientTransform="translate(2787.33 -196.13) scale(.2 -.2)" gradientUnits="userSpaceOnUse">
      <stop offset="0" stop-color="#00d7ef"/>
      <stop offset="1" stop-color="#005cbd"/>
    </radialGradient>
    <radialGradient id="radial-gradient-4" cx="-11949.3" cy="-6315.9" fx="-11949.3" fy="-6315.9" r="62.9" gradientTransform="translate(2825.61 -323.11) rotate(20.13) scale(.2 -.2)" gradientUnits="userSpaceOnUse">
      <stop offset=".05" stop-color="#fff"/>
      <stop offset=".05" stop-color="#fff" stop-opacity=".86"/>
      <stop offset=".09" stop-color="#fff" stop-opacity="0"/>
      <stop offset=".16" stop-color="#fff"/>
      <stop offset=".25" stop-color="#fff"/>
      <stop offset=".27" stop-color="#fff"/>
      <stop offset=".4" stop-color="#fff" stop-opacity=".51"/>
      <stop offset=".4" stop-color="#fff" stop-opacity=".5"/>
      <stop offset=".41" stop-color="#fff" stop-opacity=".43"/>
      <stop offset=".45" stop-color="#fff" stop-opacity="0"/>
      <stop offset=".53" stop-color="#fff"/>
      <stop offset="1" stop-color="#fff" stop-opacity="0"/>
    </radialGradient>
  </defs>
  <g id="Layer_1-2" data-name="Layer 1">
    <g>
      <g>
        <g>
          <path class="cls-4" d="m259.02,63.63l-22.88-28.38v27.79h-8.04V18.17h4.02l22.29,27.02v-27.02h7.98v45.41h-3.37v.06Z"/>
          <path class="cls-4" d="m273.74,62.98v-26.49h-4.43v-6.27h12.59v32.75h-8.16Zm4.14-45.46c1.3,0,2.36.41,3.31,1.3.89.89,1.36,1.89,1.36,3.13s-.47,2.25-1.36,3.13-2.01,1.3-3.31,1.3-2.36-.41-3.31-1.3c-.89-.89-1.36-1.89-1.36-3.13s.47-2.25,1.36-3.13c.95-.83,2.07-1.3,3.31-1.3Z"/>
          <path class="cls-4" d="m331.21,62.98v-20.52c0-4.32-2.01-6.44-6.09-6.44-1.18,0-2.36.35-3.49,1.01s-1.89,1.42-2.36,2.31v23.65h-8.04v-21.7c0-1.6-.53-2.9-1.6-3.84-1.06-.95-2.54-1.42-4.43-1.42-1.01,0-2.13.35-3.31,1.06-1.18.71-2.07,1.48-2.6,2.36v23.53h-8.04V30.23h5.56l1.66,2.9c2.25-2.31,5.14-3.49,8.69-3.49,4.55,0,8.04,1.18,10.35,3.55,1.01-1.06,2.42-1.95,4.2-2.6,1.83-.65,3.61-.95,5.44-.95,3.84,0,6.86,1.06,8.99,3.13,2.13,2.07,3.19,4.97,3.19,8.63v21.64h-8.1v-.06Z"/>
          <path class="cls-4" d="m353.62,61.21l-1.77,2.42h-4.55V18.05l8.04-1.83v15.31c2.13-1.24,4.49-1.89,7.04-1.89,5.03,0,9.1,1.54,12.18,4.55,3.07,3.02,4.61,6.92,4.61,11.65,0,5.5-1.54,9.81-4.67,13.01-3.13,3.19-7.33,4.79-12.65,4.79-3.13,0-5.91-.83-8.22-2.42Zm1.71-23.18v17.09c1.18,1.3,2.78,2.01,4.79,2.01,3.9,0,6.62-.89,8.28-2.6,1.6-1.77,2.42-4.55,2.42-8.4,0-6.62-3.37-9.99-10.05-9.99-2.36-.06-4.2.59-5.44,1.89Z"/>
          <path class="cls-4" d="m387.67,18.05l8.04-1.83v36.83c0,4.02,1.24,6.44,3.78,7.21-1.24,2.25-3.37,3.37-6.39,3.37-3.67,0-5.5-2.42-5.5-7.21l.06-38.37h0Z"/>
          <path class="cls-4" d="m436.51,48.97h-24.65c.18,2.6,1.12,4.61,2.84,6.09,1.71,1.42,4.08,2.19,7.04,2.19,3.67,0,6.44-.89,8.4-2.72l3.13,5.85c-2.84,2.19-7.04,3.25-12.71,3.25-5.26,0-9.4-1.48-12.47-4.38-3.07-2.9-4.61-7.04-4.61-12.24s1.66-9.34,5.03-12.53c3.37-3.19,7.39-4.79,12.12-4.79,5.03,0,8.99,1.42,12.06,4.26,3.02,2.84,4.55,6.44,4.55,10.82,0,.89-.24,2.31-.71,4.2Zm-24.36-5.73h16.97c-.53-4.79-3.37-7.21-8.4-7.21-4.55,0-7.45,2.36-8.57,7.21Z"/>
        </g>
        <g>
          <path class="cls-1" d="m259.96,119.09v-17.22c0-2.53-.48-4.41-1.45-5.54s-2.53-1.78-4.68-1.78c-1.02,0-2.1.27-3.23.86-1.13.59-2.05,1.29-2.69,2.15v21.53h-6.84v-29.82h4.9l1.24,2.8c1.88-2.21,4.58-3.34,8.24-3.34s6.24,1.08,8.24,3.18c1.99,2.1,3.01,5.11,3.01,8.88v18.3h-6.73Z"/>
          <path class="cls-1" d="m290.54,83.4c-1.51-.48-2.64-.75-3.44-.75-1.29,0-2.37.59-3.28,1.72-.92,1.13-1.35,2.53-1.35,4.2,0,.22,0,.48.05.7h6.08v5.76h-5.97v24.11h-6.84v-24.11h-4.25v-5.76h4.31c.16-3.66,1.18-6.62,3.18-8.88,1.99-2.26,4.52-3.39,7.64-3.39,1.61,0,3.61.38,5.92,1.08l-2.05,5.33Z"/>
          <path class="cls-1" d="m292.96,104.13c0-4.58,1.29-8.24,3.88-11.09,2.58-2.85,5.97-4.31,10.23-4.31,4.47,0,7.91,1.4,10.33,4.14,2.48,2.75,3.71,6.51,3.71,11.3s-1.24,8.56-3.77,11.36c-2.53,2.8-5.92,4.2-10.28,4.2s-7.91-1.4-10.39-4.25c-2.48-2.91-3.71-6.67-3.71-11.36Zm7.1,0c0,6.57,2.31,9.85,7,9.85,2.15,0,3.82-.86,5.06-2.58,1.24-1.72,1.88-4.14,1.88-7.32,0-6.46-2.31-9.74-6.94-9.74-2.15,0-3.82.86-5.06,2.58-1.29,1.78-1.94,4.14-1.94,7.21Z"/>
          <path class="cls-1" d="m324.77,117.21l2.42-5.54c2.05,1.67,4.36,2.48,6.89,2.48s3.98-.97,3.98-2.91c0-1.13-.38-2.05-1.18-2.8-.81-.7-2.37-1.56-4.68-2.58-5.06-2.15-7.59-5.11-7.59-8.99,0-2.58.97-4.58,2.91-6.03,1.94-1.45,4.41-2.15,7.43-2.15s5.92.7,8.56,2.1l-1.99,5.38c-1.51-1.29-3.55-1.94-6.24-1.94-2.37,0-3.61.97-3.61,2.91,0,.75.38,1.45,1.18,2.05.81.59,2.48,1.45,5.01,2.48,2.58,1.02,4.41,2.26,5.54,3.77,1.13,1.51,1.67,3.23,1.67,5.33,0,2.75-1.02,4.95-3.01,6.51-1.99,1.56-4.74,2.37-8.24,2.37-1.94,0-3.5-.16-4.68-.48-1.02-.27-2.53-.97-4.36-1.94Z"/>
          <path class="cls-1" d="m363.63,123.88c-.75,1.99-2.31,3.66-4.68,4.95-2.42,1.29-5.17,1.94-8.4,1.94v-6.14c5.27,0,7.91-1.35,7.91-4.04,0-1.78-.75-4.52-2.21-8.18l-9.15-23.14h7.1l7.97,20.61,7.21-20.61h7.1l-12.86,34.61Z"/>
          <rect class="cls-1" x="228.1" y="78.61" width="6.84" height="40.48"/>
          <path class="cls-1" d="m378.44,117.54l2.51-5.6c2.1,1.67,4.48,2.51,7.12,2.51s4.11-.98,4.11-2.93c0-1.14-.41-2.08-1.24-2.82-.83-.73-2.43-1.6-4.81-2.59-5.2-2.16-7.8-5.18-7.8-9.07,0-2.61.99-4.64,2.98-6.1,1.99-1.45,4.53-2.18,7.63-2.18s6.08.7,8.84,2.11l-2.03,5.46c-1.54-1.31-3.68-1.97-6.42-1.97-2.46,0-3.69.98-3.69,2.93,0,.77.4,1.46,1.21,2.08.81.62,2.53,1.45,5.18,2.49,2.65,1.04,4.55,2.3,5.72,3.79,1.16,1.48,1.75,3.28,1.75,5.38,0,2.8-1.04,5-3.11,6.6-2.07,1.61-4.89,2.41-8.46,2.41-2.01,0-3.62-.16-4.83-.49-1.21-.33-2.76-1-4.66-2.01Z"/>
        </g>
      </g>
      <g>
        <circle class="cls-5" cx="102.5" cy="71.56" r="71.56"/>
        <path class="cls-3" d="m50.29,110.34s8.76-6,12.43-26.07,21.19-34.47,32.28-30.16c11.09,4.31,8.83,15.89,6.78,23.52-1.55,5.86-1.2,10.31,2.75,10.52,3.96.21,9.32,0,14.98-12.08,5.65-12.08,11.51-25.5,23.52-26.84,0,0-5.09.42-14.76,26.84-9.68,26.42-31.72,28.4-35.81,18.65-4.1-9.75,6.99-29.39-.42-31.5-7.42-2.12-15.75,6.78-22.18,26.49-6.43,19.71-9.25,18.3-19.57,20.63Z"/>
        <path class="cls-2" d="m47.26,110.34s8.76-6,12.43-26.07,21.19-34.47,32.28-30.16c11.09,4.31,8.83,15.89,6.78,23.52-1.55,5.86-1.2,10.31,2.75,10.52,3.96.21,9.32,0,14.98-12.08s11.51-25.5,23.52-26.84c0,0-5.09.42-14.76,26.84-9.75,26.49-31.72,28.4-35.81,18.65-4.1-9.75,6.99-29.39-.42-31.5-7.42-2.12-15.75,6.78-22.18,26.49-6.43,19.71-9.25,18.3-19.57,20.63Z"/>
        <path class="cls-6" d="m0,133.72s33.06-24.3,78.62-13.7c45.56,10.6,79.82,19.57,129.2-12.36,0,0-10.1,25.15-56.09,36.52-33.69,8.34-76.29-4.1-99.53-8.19-25.99-4.59-52.2-2.26-52.2-2.26Z"/>
        <path class="cls-7" d="m155.26,47.54c-.85,1.34-1.91,2.47-3.11,3.39-.71-1.2-2.19-1.7-3.46-1.06-1.27.57-1.91,2.05-1.41,3.32-1.48.35-3.04.42-4.59.21.35-1.34-.35-2.75-1.7-3.25-1.34-.49-2.75.14-3.39,1.34-1.34-.85-2.47-1.91-3.39-3.11,1.2-.71,1.7-2.19,1.06-3.46-.57-1.27-2.05-1.91-3.32-1.41-.35-1.48-.42-3.04-.21-4.59,1.34.35,2.75-.35,3.25-1.7.49-1.34-.14-2.75-1.34-3.39.85-1.34,1.91-2.47,3.11-3.39.71,1.2,2.19,1.7,3.46,1.06,1.27-.57,1.91-2.05,1.41-3.32,1.48-.35,3.04-.42,4.59-.21-.35,1.34.35,2.75,1.7,3.25,1.34.49,2.75-.14,3.39-1.34,1.34.85,2.47,1.91,3.39,3.11-1.2.71-1.7,2.19-1.06,3.46.57,1.27,2.05,1.91,3.32,1.41.35,1.48.42,3.04.21,4.59-1.34-.35-2.75.35-3.25,1.7-.49,1.34.07,2.75,1.34,3.39Z"/>
      </g>
    </g>
  </g>
</svg>